<?xml version="1.0" standalone="no"?>
<!DOCTYPE svg PUBLIC "-//W3C//DTD SVG 20010904//EN"
 "http://www.w3.org/TR/2001/REC-SVG-20010904/DTD/svg10.dtd">
<svg version="1.0" xmlns="http://www.w3.org/2000/svg"
 width="492.000000pt" height="438.000000pt" viewBox="0 0 492.000000 438.000000"
 preserveAspectRatio="xMidYMid meet">

<g transform="translate(0.000000,438.000000) scale(0.100000,-0.100000)"
fill="#000000" stroke="none">
<path d="M2180 3725 c-558 -94 -982 -501 -1102 -1058 -31 -144 -31 -388 1
-534 40 -189 122 -375 234 -527 37 -50 244 -266 551 -573 461 -463 493 -493
526 -493 33 0 65 30 536 502 540 543 577 586 669 781 96 202 129 353 129 582
-1 125 -6 182 -23 262 -57 271 -175 489 -370 683 -207 206 -447 328 -736 375
-108 18 -311 18 -415 0z m401 -481 c354 -80 612 -371 660 -741 35 -276 -89
-577 -313 -757 -316 -254 -757 -255 -1074 -2 -224 179 -350 482 -315 759 35
272 179 497 411 642 87 55 220 99 355 119 52 8 203 -3 276 -20z"/>
</g>
</svg>
