<?xml version="1.0" encoding="UTF-8"?>
<!DOCTYPE svg PUBLIC "-//W3C//DTD SVG 1.1//EN" "http://www.w3.org/Graphics/SVG/1.1/DTD/svg11.dtd">
<svg xmlns="http://www.w3.org/2000/svg" version="1.1" width="32px" height="29px" style="shape-rendering:geometricPrecision; text-rendering:geometricPrecision; image-rendering:optimizeQuality; fill-rule:evenodd; clip-rule:evenodd" xmlns:xlink="http://www.w3.org/1999/xlink">
<g><path style="opacity:1" fill="#f6f7f6" d="M -0.5,-0.5 C 10.1667,-0.5 20.8333,-0.5 31.5,-0.5C 31.5,9.16667 31.5,18.8333 31.5,28.5C 20.8333,28.5 10.1667,28.5 -0.5,28.5C -0.5,18.8333 -0.5,9.16667 -0.5,-0.5 Z"/></g>
<g><path style="opacity:1" fill="#40b555" d="M 10.5,4.5 C 20.5536,3.04559 24.387,7.04559 22,16.5C 19.6667,18.8333 17.3333,21.1667 15,23.5C 12.3063,20.8063 9.63962,18.1396 7,15.5C 5.88241,11.0767 7.04907,7.41004 10.5,4.5 Z"/></g>
<g><path style="opacity:1" fill="#fafafa" d="M 12.5,7.5 C 19.494,7.41488 21.1607,10.2482 17.5,16C 10.4159,16.475 8.74923,13.6417 12.5,7.5 Z"/></g>
</svg>
